<svg width="39" height="40" viewBox="0 0 39 40" fill="none" xmlns="http://www.w3.org/2000/svg">
<path d="M38.2499 12.3044L38.2499 12.4404C38.2498 14.0543 38.2498 14.8612 37.8613 15.5214C37.4729 16.1816 36.7675 16.5735 35.3567 17.3573L33.8692 18.1837C34.8942 14.7184 35.2362 10.9953 35.3626 7.8112C35.368 7.67468 35.3741 7.53648 35.3803 7.39681L35.3846 7.29898C36.6058 7.72305 37.2914 8.0392 37.7191 8.63265C38.25 9.36923 38.2499 10.3476 38.2499 12.3044Z" fill="#FFD700"/>
<path d="M0.750001 12.3044L0.750006 12.4404C0.750049 14.0543 0.750072 14.8612 1.13855 15.5214C1.52703 16.1816 2.23243 16.5735 3.64321 17.3573L5.13151 18.1842C4.10639 14.7188 3.76439 10.9954 3.63797 7.8112C3.63255 7.67468 3.62644 7.53648 3.62027 7.39681L3.61595 7.29875C2.39439 7.72293 1.7086 8.03909 1.28081 8.63265C0.749923 9.36923 0.749949 10.3476 0.750001 12.3044Z" fill="#FFD700"/>
<path fill-rule="evenodd" clip-rule="evenodd" d="M19.5003 0.75C22.8444 0.75 25.5995 1.04454 27.7071 1.40014C29.8422 1.76038 30.9098 1.94051 31.8018 3.03906C32.6937 4.13762 32.6466 5.32495 32.5523 7.69963C32.2287 15.8521 30.4693 26.0349 20.9062 26.9357V33.5625H23.5879C24.4816 33.5625 25.2512 34.1934 25.4265 35.0698L25.7812 36.8438H30.75C31.5266 36.8438 32.1562 37.4734 32.1562 38.25C32.1562 39.0266 31.5266 39.6562 30.75 39.6562H8.25C7.47335 39.6562 6.84375 39.0266 6.84375 38.25C6.84375 37.4734 7.47335 36.8438 8.25 36.8438H13.2188L13.5735 35.0698C13.7488 34.1934 14.5184 33.5625 15.4121 33.5625H18.0938V26.9356C8.53117 26.0345 6.77191 15.8519 6.44826 7.69963C6.35398 5.32495 6.30684 4.13762 7.19881 3.03906C8.09078 1.94051 9.15834 1.76038 11.2935 1.40014C13.4011 1.04454 16.1561 0.75 19.5003 0.75ZM21.2857 8.62288L21.1013 8.29221C20.3889 7.01407 20.0326 6.375 19.5 6.375C18.9674 6.375 18.6111 7.01407 17.8987 8.29221L17.7143 8.62288C17.5119 8.98608 17.4106 9.16769 17.2528 9.28752C17.0949 9.40734 16.8984 9.45182 16.5052 9.54078L16.1472 9.62177C14.7637 9.93481 14.0719 10.0913 13.9073 10.6206C13.7427 11.1499 14.2143 11.7014 15.1576 12.8043L15.4016 13.0897C15.6696 13.4031 15.8036 13.5598 15.8639 13.7537C15.9242 13.9476 15.904 14.1567 15.8634 14.5749L15.8265 14.9556C15.6839 16.4272 15.6126 17.163 16.0435 17.4901C16.4744 17.8172 17.1221 17.519 18.4176 16.9225L18.7527 16.7682C19.1208 16.5987 19.3049 16.514 19.5 16.514C19.6951 16.514 19.8792 16.5987 20.2473 16.7682L20.5824 16.9225C21.8779 17.519 22.5256 17.8172 22.9565 17.4901C23.3874 17.163 23.3161 16.4272 23.1735 14.9556L23.1366 14.5749C23.096 14.1567 23.0758 13.9476 23.1361 13.7537C23.1964 13.5598 23.3304 13.4031 23.5984 13.0897L23.8424 12.8043C24.7857 11.7014 25.2573 11.1499 25.0927 10.6206C24.9281 10.0913 24.2363 9.93481 22.8528 9.62177L22.4948 9.54078C22.1016 9.45182 21.9051 9.40734 21.7472 9.28752C21.5894 9.16769 21.4881 8.98609 21.2857 8.62288Z" fill="#FFD700"/>
</svg>
