<svg width="31" height="42" viewBox="0 0 31 42" fill="none" xmlns="http://www.w3.org/2000/svg">
<path fill-rule="evenodd" clip-rule="evenodd" d="M1.276 32.2299C1.94691 31.83 2.80795 32.0617 3.19919 32.7475C4.74956 35.4653 7.11973 37.5205 10.0426 38.854C10.7518 39.1776 11.0702 40.0276 10.7536 40.7526C10.4371 41.4776 9.60557 41.803 8.89635 41.4794C5.49977 39.9297 2.65014 37.4923 0.769609 34.1958C0.378373 33.51 0.605094 32.6298 1.276 32.2299Z" fill="white"/>
<path fill-rule="evenodd" clip-rule="evenodd" d="M28.4485 5.51712C26.5474 3.53246 23.8362 2.8004 21.1821 3.57239C20.4351 3.78966 19.6572 3.34678 19.4447 2.58318C19.2321 1.81958 19.6654 1.02442 20.4124 0.80715C24.0465 -0.249873 27.8273 0.759294 30.458 3.5057C31.0014 4.07295 30.992 4.98308 30.4371 5.53852C29.8822 6.09396 28.9918 6.08438 28.4485 5.51712Z" fill="white"/>
<path fill-rule="evenodd" clip-rule="evenodd" d="M13.9817 4.34115C13.5803 3.63759 12.4107 3.21091 11.2225 3.90503C10.0387 4.59662 9.83052 5.81569 10.2249 6.50701L14.9605 14.8083C15.3517 15.4941 15.125 16.3743 14.4541 16.7742C13.7832 17.1742 12.9222 16.9424 12.5309 16.2566L6.21678 5.18818C5.81542 4.48462 4.64578 4.05794 3.45764 4.75207C2.27385 5.44365 2.06564 6.66273 2.46002 7.35405L9.56343 19.806C9.95466 20.4918 9.72794 21.372 9.05703 21.7719C8.38612 22.1719 7.52508 21.9401 7.13384 21.2543L3.97677 15.7201C3.57542 15.0165 2.40577 14.5898 1.21763 15.284C0.0338412 15.9755 -0.174362 17.1946 0.220012 17.8859L7.32342 30.3379C10.3402 35.6262 17.7846 37.3423 24.0977 33.6541C30.4064 29.9685 32.649 22.6056 29.6392 17.3296L24.9036 9.02832C24.5023 8.32476 23.3326 7.89808 22.1445 8.59221C20.9607 9.28379 20.7525 10.5029 21.1468 11.1942L24.3039 16.7284C24.4929 17.0596 24.5445 17.4543 24.4474 17.8246C24.3504 18.195 24.1126 18.5103 23.7869 18.7006C20.8948 20.3902 20.0085 23.6572 21.2746 25.8767C21.6659 26.5626 21.4392 27.4427 20.7682 27.8427C20.0973 28.2426 19.2363 28.0108 18.8451 27.325C17.1337 24.3251 17.8252 20.7128 20.0356 18.1597C20.6536 17.4459 20.8652 16.4077 20.3955 15.5843L13.9817 4.34115Z" fill="white"/>
</svg>
