<svg width="27" height="39" viewBox="0 0 27 39" fill="none" xmlns="http://www.w3.org/2000/svg">
<path d="M0.746719 3.18595C1.87586 0.749989 5.75058 0.749989 13.5 0.749989C21.2494 0.749989 25.1241 0.749989 26.2533 3.18595C26.3503 3.39534 26.4322 3.61284 26.4982 3.83642C27.2652 6.43742 24.5254 9.45207 19.0457 15.4814L15.375 19.5L19.0457 23.5186C24.5254 29.5479 27.2652 32.5626 26.4982 35.1636C26.4322 35.3871 26.3503 35.6046 26.2533 35.814C25.1241 38.25 21.2494 38.25 13.5 38.25C5.75058 38.25 1.87586 38.25 0.746719 35.814C0.64966 35.6046 0.567782 35.3871 0.501849 35.1636C-0.265188 32.5626 2.47465 29.5479 7.95432 23.5186L11.625 19.5L7.95432 15.4814C2.47465 9.45207 -0.265188 6.43742 0.501849 3.83642C0.567782 3.61284 0.64966 3.39534 0.746719 3.18595Z" fill="#FFD700"/>
</svg>
