<svg width="74" height="74" viewBox="0 0 74 74" fill="none" xmlns="http://www.w3.org/2000/svg">
<path fill-rule="evenodd" clip-rule="evenodd" d="M37 73.6667C57.2504 73.6667 73.6666 57.2505 73.6666 37C73.6666 16.7496 57.2504 0.333344 37 0.333344C16.7495 0.333344 0.333313 16.7496 0.333313 37C0.333313 57.2505 16.7495 73.6667 37 73.6667ZM51.4269 13.5025C52.4624 13.9243 53.1394 14.9311 53.1394 16.0493V26.0025C53.1394 27.5213 51.9082 28.7525 50.3894 28.7525H40.6667C39.5603 28.7525 38.5616 28.0894 38.1323 27.0697C37.7029 26.05 37.9264 24.8723 38.6995 24.0809L41.4917 21.2225C36.1915 19.5886 30.2047 20.9145 26.0035 25.2152C19.8877 31.4761 19.8877 41.653 26.0035 47.9139C32.0842 54.1388 41.9157 54.1388 47.9964 47.9139C50.4818 45.3696 51.962 42.1746 52.4253 38.8497C52.6388 37.3172 53.8564 36.0281 55.4037 36.0281C56.8903 36.0281 58.1234 37.2182 57.9797 38.6978C57.5176 43.4556 55.506 48.0972 51.9308 51.7572C43.6923 60.191 30.3077 60.191 22.0692 51.7572C13.8658 43.3593 13.8658 29.7698 22.0692 21.3719C28.4402 14.8499 37.8947 13.3671 45.6704 16.9447L48.4223 14.1276C49.2036 13.3278 50.3914 13.0806 51.4269 13.5025Z" fill="black"/>
</svg>
