<svg width="39" height="39" viewBox="0 0 39 39" fill="none" xmlns="http://www.w3.org/2000/svg">
<path fill-rule="evenodd" clip-rule="evenodd" d="M19.5 38.25C29.8553 38.25 38.25 29.8553 38.25 19.5C38.25 9.14466 29.8553 0.75 19.5 0.75C9.14466 0.75 0.75 9.14466 0.75 19.5C0.75 29.8553 9.14466 38.25 19.5 38.25ZM17.3649 14.5563L17.1191 14.9972C16.8491 15.4815 16.7142 15.7236 16.5037 15.8834C16.2932 16.0431 16.0311 16.1024 15.5069 16.221L15.0297 16.329C13.1849 16.7464 12.2625 16.9551 12.0431 17.6608C11.8236 18.3665 12.4524 19.1018 13.7101 20.5724L14.0354 20.9529C14.3928 21.3708 14.5715 21.5798 14.6519 21.8383C14.7323 22.0968 14.7053 22.3756 14.6512 22.9332L14.602 23.4408C14.4119 25.403 14.3168 26.384 14.8914 26.8202C15.4659 27.2563 16.3295 26.8587 18.0567 26.0634L18.5036 25.8576C18.9944 25.6316 19.2399 25.5186 19.5 25.5186C19.7601 25.5186 20.0056 25.6316 20.4964 25.8576L20.9432 26.0634C22.6705 26.8587 23.5341 27.2563 24.1086 26.8202C24.6832 26.384 24.5881 25.4029 24.398 23.4408L24.3488 22.9332C24.2947 22.3756 24.2677 22.0968 24.3481 21.8383C24.4285 21.5798 24.6072 21.3708 24.9646 20.9529L25.2899 20.5724C26.5476 19.1018 27.1764 18.3665 26.9569 17.6608C26.7375 16.9551 25.8151 16.7464 23.9703 16.329L23.4931 16.221C22.9689 16.1024 22.7068 16.0431 22.4963 15.8834C22.2858 15.7236 22.1509 15.4815 21.8809 14.9972L21.6351 14.5563C20.6851 12.8521 20.2101 12 19.5 12C18.7899 12 18.3149 12.8521 17.3649 14.5563Z" fill="#FFD700"/>
</svg>
